<?xml version="1.0" standalone="no"?>
<!DOCTYPE svg PUBLIC "-//W3C//DTD SVG 20010904//EN"
 "http://www.w3.org/TR/2001/REC-SVG-20010904/DTD/svg10.dtd">
<svg version="1.0" xmlns="http://www.w3.org/2000/svg"
 width="500.000000pt" height="500.000000pt" viewBox="0 0 500.000000 500.000000"
 preserveAspectRatio="xMidYMid meet">
<metadata>
Created by potrace 1.14, written by Peter Selinger 2001-2017
</metadata>
<g transform="translate(0.000000,500.000000) scale(0.100000,-0.100000)"
fill="#000000" stroke="none">
<path d="M0 2500 l0 -2500 2500 0 2500 0 0 2500 0 2500 -2500 0 -2500 0 0
-2500z m3138 1669 c310 -33 524 -135 658 -312 54 -71 104 -173 130 -267 15
-57 18 -125 23 -548 l6 -482 -387 0 -387 0 -3 403 c-4 446 -6 464 -71 549 -67
88 -177 131 -383 148 -263 21 -571 -39 -815 -159 l-94 -46 -3 -447 -2 -448
-385 0 -385 0 0 785 0 785 385 0 385 0 2 -242 3 -242 29 45 c40 59 128 152
198 205 278 215 690 318 1096 273z m-722 -1745 c268 -37 462 -109 634 -235 83
-61 137 -117 194 -203 l46 -70 0 242 0 242 385 0 385 0 0 -785 0 -785 -364 0
-364 0 -6 33 c-10 58 -36 338 -36 395 l0 55 -40 -62 c-155 -239 -444 -394
-845 -452 -120 -18 -465 -18 -580 0 -410 61 -695 222 -838 471 -87 153 -108
409 -47 586 64 184 205 337 407 438 267 134 682 184 1069 130z"/>
<path d="M2237 1949 c-331 -24 -512 -129 -533 -310 -11 -100 36 -192 129 -254
130 -85 333 -120 647 -111 531 15 779 110 806 308 8 55 -15 136 -51 184 -42
55 -187 120 -330 148 -163 32 -485 49 -668 35z"/>
</g>
</svg>
